<svg width="16" height="20" viewBox="0 0 16 20" fill="none" xmlns="http://www.w3.org/2000/svg">
<path d="M10.5 1.66666H3C2.55797 1.66666 2.13405 1.84226 1.82149 2.15482C1.50893 2.46738 1.33333 2.8913 1.33333 3.33333V16.6667C1.33333 17.1087 1.50893 17.5326 1.82149 17.8452C2.13405 18.1577 2.55797 18.3333 3 18.3333H13C13.442 18.3333 13.866 18.1577 14.1785 17.8452C14.4911 17.5326 14.6667 17.1087 14.6667 16.6667V5.83333L10.5 1.66666Z" stroke="#2B2E4A" stroke-width="2" stroke-linecap="round" stroke-linejoin="round"/>
<path d="M9.66667 1.66666V5C9.66667 5.44203 9.84226 5.86595 10.1548 6.17851C10.4674 6.49107 10.8913 6.66666 11.3333 6.66666H14.6667M5.5 12.5H10.5M8 15V10" stroke="#2B2E4A" stroke-width="2" stroke-linecap="round" stroke-linejoin="round"/>
</svg>
