<svg width="11" height="13" viewBox="0 0 11 13" fill="none" xmlns="http://www.w3.org/2000/svg">
<path d="M5.36922 12.9955C4.38109 12.9955 3.42203 12.8734 2.49203 12.6293C1.56203 12.3852 0.806407 12.0597 0.225157 11.6528L1.35859 9.10691C1.90497 9.46728 2.53853 9.75791 3.25928 9.97878C3.98003 10.1997 4.68916 10.3101 5.38666 10.3101C6.71191 10.3101 7.37453 9.97878 7.37453 9.31616C7.37453 8.96741 7.18563 8.70875 6.80781 8.54019C6.43 8.37162 5.82259 8.19434 4.98559 8.00834C4.06722 7.81072 3.29997 7.59856 2.68384 7.37187C2.06772 7.14519 1.53878 6.78191 1.09703 6.28203C0.655282 5.78216 0.434406 5.1079 0.434406 4.25928C0.434406 3.51528 0.637844 2.84394 1.04472 2.24525C1.45159 1.64656 2.059 1.17284 2.86694 0.824093C3.67488 0.475343 4.66591 0.300968 5.84003 0.300968C6.64216 0.300968 7.43266 0.391062 8.21153 0.57125C8.99041 0.751437 9.67628 1.01591 10.2692 1.36466L9.20547 3.92797C8.04297 3.30022 6.91534 2.98634 5.82259 2.98634C5.13672 2.98634 4.63684 3.08806 4.32297 3.2915C4.00909 3.49494 3.85216 3.75941 3.85216 4.08491C3.85216 4.41041 4.03816 4.65453 4.41016 4.81728C4.78216 4.98003 5.38084 5.14859 6.20622 5.32297C7.13622 5.52059 7.90638 5.73275 8.51669 5.95944C9.127 6.18612 9.65594 6.5465 10.1035 7.04056C10.5511 7.53462 10.7748 8.20597 10.7748 9.05459C10.7748 9.78697 10.5714 10.4496 10.1645 11.0425C9.75766 11.6353 9.14734 12.1091 8.33359 12.4636C7.51984 12.8182 6.53172 12.9955 5.36922 12.9955Z" fill="white"/>
</svg>
